<svg width="100" height="100" viewBox="0 0 100 100" fill="none" xmlns="http://www.w3.org/2000/svg">
<rect width="100" height="100" fill="#034B8B"/>
<path d="M50 100C77.6142 100 100 77.6142 100 50C100 22.3858 77.6142 0 50 0C22.3858 0 0 22.3858 0 50C0 77.6142 22.3858 100 50 100Z" fill="#CA252A"/>
<path d="M50.0005 81.25C67.2594 81.25 81.2505 67.2589 81.2505 50C81.2505 32.7411 67.2594 18.75 50.0005 18.75C32.7416 18.75 18.7505 32.7411 18.7505 50C18.7505 67.2589 32.7416 81.25 50.0005 81.25Z" fill="#0572B9"/>
<path d="M50.0005 90.625C72.437 90.625 90.6255 72.4366 90.6255 50C90.6255 27.5634 72.437 9.375 50.0005 9.375C27.5639 9.375 9.37549 27.5634 9.37549 50C9.37549 72.4366 27.5639 90.625 50.0005 90.625Z" stroke="white" stroke-width="7.29167"/>
<path d="M50.0001 19.063L56.9803 40.5499L79.5725 40.5486L61.2943 53.8269L68.2768 75.313L50.0001 62.0326L31.7234 75.313L38.706 53.8269L20.4277 40.5486L43.02 40.5499L50.0001 19.063Z" fill="white"/>
</svg>
