<svg width="100" height="100" viewBox="0 0 100 100" fill="none" xmlns="http://www.w3.org/2000/svg">
<g clip-path="url(#clip0_1_82)">
<rect width="100" height="100" fill="#CE2506"/>
<path d="M78.9547 49.1125C78.6458 48.3646 78.3493 47.672 78.0723 46.9642C77.9144 46.5486 77.6859 46.4101 77.2329 46.5098C71.189 47.8313 65.1432 49.1458 59.0955 50.4534C58.5596 50.5792 58.0115 50.6461 57.461 50.6529C52.9232 50.6529 48.384 50.6335 43.8462 50.6639C42.2533 50.675 40.7517 50.2248 39.2267 49.9007C34.0295 48.7926 28.837 47.666 23.6491 46.5209C23.192 46.4212 22.9288 46.507 22.7723 46.9932C22.5811 47.5819 22.2944 48.1402 22.0645 48.7178C21.9453 49.0156 21.8484 49.143 21.5589 48.8411C20.8898 48.1485 20.1834 47.478 19.5088 46.7855C19.1307 46.3976 19.0199 45.9544 19.1598 45.3906C19.6543 43.4278 20.2443 41.4886 20.4992 39.4676C20.653 38.2514 20.4729 37.0644 20.272 35.8939C19.0794 28.9016 19.0808 21.8525 19.1958 14.7964C19.2096 13.8739 19.2027 12.9528 19.2179 12.0261C19.2104 11.6121 19.2926 11.2015 19.4588 10.8222C19.625 10.443 19.8712 10.1043 20.1806 9.8292C21.9495 8.21409 23.6366 6.5048 25.4207 4.90908C27.9625 2.63187 31.0999 1.55005 34.3232 0.698175C35.2568 0.451615 36.2042 0.252151 37.1295 -0.0207269C37.6199 -0.159244 37.7736 -0.00964525 37.847 0.455771C38.3 3.3203 38.7197 6.19175 39.2502 9.04381C39.9428 12.8004 40.2378 16.6262 41.1728 20.3412C41.427 21.3458 41.7567 22.3298 42.1591 23.2847C42.5982 24.3305 43.3185 24.9705 44.5139 24.9718C47.9768 24.9718 51.4245 24.9982 54.8805 25.0092C55.3403 25.0092 55.8016 24.9968 56.2656 24.9899C57.5275 24.9691 58.3032 24.3056 58.7589 23.16C59.4819 21.3397 59.9878 19.4405 60.266 17.5016C61.0209 12.238 61.9794 7.00623 62.8189 1.75506C62.895 1.27856 62.9574 0.799292 63.0349 0.32141C63.0765 0.0443761 63.125 -0.166171 63.5087 -0.0650533C67.0436 0.865779 70.6492 1.58191 73.7797 3.64304C75.1773 4.56279 76.3298 5.7568 77.5432 6.88433C78.6236 7.88858 79.6763 8.92191 80.7637 9.91646C81.0271 10.1418 81.2388 10.4213 81.3844 10.7358C81.53 11.0504 81.606 11.3927 81.6073 11.7393C81.6724 18.535 82.0519 25.3375 81.0324 32.1013C80.7554 33.9436 80.5573 35.7997 80.3398 37.6517C80.1293 39.4344 80.6529 41.1229 81.0573 42.8225C81.2707 43.7182 81.4932 44.6121 81.725 45.5042C81.8247 45.8879 81.8053 46.2605 81.5325 46.5417C80.7041 47.4019 79.8481 48.226 78.9547 49.1125Z" fill="#F4C914"/>
<path d="M38.0248 85.595C37.7161 85.697 37.439 85.8772 37.2205 86.118C37.0021 86.3588 36.8497 86.652 36.7781 86.9691C36.5426 87.8709 35.9692 88.5593 35.4054 89.2588C35.2669 89.4209 35.1755 89.5358 34.9635 89.3752C33.9163 88.5939 32.7362 87.9803 31.9466 86.8722C31.4715 86.2004 31.0823 85.487 31.0532 84.6559C30.8898 80.0003 28.9117 76.0679 26.3367 72.3279C23.7049 68.4951 21.0966 64.6388 18.7294 60.6302C17.8983 59.2284 17.2791 57.7587 17.0325 56.1394C16.919 55.3859 17.124 54.6712 17.2597 53.9523C17.6323 51.9839 18.0299 50.0212 18.4232 48.057C18.473 47.8693 18.5326 47.6843 18.6019 47.5029L21.7629 50.5877C22.274 51.0877 22.8336 51.5476 23.2783 52.1017C24.3656 53.4578 25.8242 54.0409 27.4684 54.3872C29.7082 54.8554 31.9342 55.1643 34.2432 54.9745C36.0066 54.836 37.7796 54.7889 39.5332 54.5216C40.0324 54.4385 40.5224 54.3067 40.9959 54.1282C41.26 54.0505 41.4998 53.9063 41.6921 53.7093C41.8845 53.5124 42.023 53.2693 42.0944 53.0034C42.3797 52.0754 42.6886 51.8717 43.6555 51.8704C48.1711 51.862 52.6867 51.862 57.2024 51.8704C58.1845 51.8704 58.4601 52.0546 58.7413 53.0062C59.0073 53.9066 59.7262 54.1753 60.4908 54.372C61.6529 54.6698 62.8553 54.7474 64.0437 54.8596C67.8543 55.2197 71.6289 55.1269 75.301 53.8636C75.7588 53.7137 76.1752 53.459 76.5172 53.1198C78.2722 51.3883 80.0438 49.6735 81.7988 47.942C82.159 47.586 82.3182 47.4946 82.4346 48.1235C82.7975 50.0932 83.2075 52.0546 83.6162 54.0146C84.0913 56.2987 83.443 58.3377 82.3072 60.2853C80.2405 63.8285 77.9397 67.2208 75.675 70.638C74.215 72.8432 72.6152 74.9653 71.5195 77.4004C70.523 79.5857 69.9464 81.9389 69.8199 84.3373C69.7492 85.807 69.0497 86.9248 67.9901 87.8432C67.3834 88.3681 66.6866 88.7892 66.0508 89.2754C65.7849 89.4763 65.6048 89.5192 65.3777 89.2089C64.8762 88.5163 64.3069 87.8861 64.095 87.0218C64.0267 86.7051 63.8791 86.4109 63.6662 86.1667C63.4533 85.9225 63.1819 85.7363 62.8774 85.6255C62.6461 85.4274 62.3677 85.4454 62.0906 85.4454H38.6689C38.4445 85.4413 38.2021 85.3873 38.0248 85.595Z" fill="#F4C914"/>
<path d="M60.6086 88.1309C61.8899 88.3678 62.7598 89.239 63.5895 90.1325C64.228 90.8251 64.8251 91.5606 65.4027 92.3058C65.6797 92.659 65.8418 92.6383 66.1368 92.3349C67.4389 90.9982 68.7617 89.6823 70.079 88.3609C70.2397 88.2002 70.4128 88.052 70.6691 87.8179C70.9904 89.192 71.2938 90.4802 71.5944 91.7697C71.7661 92.5108 71.9143 93.256 72.1069 93.986C72.2246 94.432 72.1554 94.7562 71.7952 95.0942C70.1709 96.5929 68.5613 98.1092 66.9665 99.643C66.6091 99.9852 66.303 99.9893 65.9429 99.6998C64.9913 98.9366 63.9773 98.2385 63.0991 97.3977C61.9051 96.2549 60.4909 95.8228 58.9035 95.7493C58.2829 95.7203 57.6568 95.6205 57.0446 95.6247C56.0209 95.6247 55.0707 95.4986 54.3809 94.6329C54.3645 94.6167 54.3464 94.6023 54.3269 94.5899C52.2616 93.033 47.854 93.2671 46.0048 95.0637C45.556 95.5 45.0352 95.5443 44.4811 95.5873C43.0364 95.6967 41.5833 95.7161 40.1538 96.0028C39.5883 96.1153 39.0598 96.3671 38.6163 96.7356C37.396 97.7163 36.1618 98.6748 34.9442 99.6638C34.5287 99.9963 34.2322 99.9879 33.8361 99.5973C32.2967 98.1069 30.7347 96.6409 29.1501 95.1994C28.7442 94.8296 28.6126 94.4791 28.7484 93.9334C29.2013 92.1022 29.5989 90.2571 30.038 88.4218C30.0795 88.2431 30.038 87.9508 30.2817 87.9051C30.4715 87.8705 30.5726 88.1018 30.6973 88.2293C32.0243 89.5743 33.3582 90.9123 34.6644 92.2767C35.0079 92.6369 35.2032 92.6286 35.5121 92.2449C36.3058 91.2586 37.058 90.235 38.0054 89.3831C38.6454 88.8069 39.331 88.3124 40.1995 88.1365C40.3921 88.0201 40.604 88.0714 40.8076 88.0714H59.9908C60.2041 88.0714 60.4133 88.0326 60.6086 88.1309Z" fill="#F4C914"/>
<path d="M38.0244 85.5947C38.1505 85.2539 38.44 85.3731 38.6768 85.3731C46.4855 85.3666 54.2927 85.3666 62.0986 85.3731C62.3646 85.3731 62.7206 85.2124 62.8729 85.6196C62.4394 85.5808 62.0072 85.5074 61.5736 85.5074C54.2046 85.501 46.8355 85.501 39.4664 85.5074C38.9843 85.5033 38.4995 85.4756 38.0244 85.5947Z" fill="#F4C914"/>
<path d="M60.6083 88.1311H40.1992C40.5857 87.9136 41.0012 87.9829 41.4168 87.9829C47.4589 87.9746 53.501 87.9746 59.5431 87.9829C59.8949 87.9801 60.2745 87.9136 60.6083 88.1311Z" fill="#F4C914"/>
</g>
<defs>
<clipPath id="clip0_1_82">
<rect width="100" height="100" fill="white"/>
</clipPath>
</defs>
</svg>
