<svg width="100" height="100" viewBox="0 0 100 100" fill="none" xmlns="http://www.w3.org/2000/svg">
<rect width="100" height="100" fill="#E40E28"/>
<path d="M52.0556 27.9481C51.9112 27.3952 51.7023 26.8653 51.4289 26.3584C51.2814 26.082 51.4012 25.5705 51.7561 25.7548C52.6378 26.2125 53.3383 26.8607 53.8575 27.6993C53.8926 27.7564 53.9397 27.8052 53.9955 27.8422C54.0514 27.8792 54.1146 27.9037 54.1809 27.9137C54.2471 27.9238 54.3148 27.9194 54.3791 27.9006C54.4435 27.8819 54.5029 27.8494 54.5534 27.8053C55.5458 26.9421 56.3676 25.9345 57.0189 24.7826C57.0648 24.7014 57.1345 24.6363 57.2185 24.5959C57.3026 24.5556 57.397 24.5419 57.489 24.5568C60.89 25.0944 64.3157 25.2695 67.7659 25.0821C67.8857 25.0761 67.9985 25.0232 68.0802 24.9346C68.162 24.846 68.2063 24.7286 68.2037 24.6075C67.9502 16.2766 66.1852 8.45725 64.0192 0.504242C63.9977 0.424374 63.9915 0.355257 64.0008 0.296892C64.0591 -0.077873 64.1759 -0.0978405 64.351 0.236991C68.5078 8.07942 71.2637 17.1014 72.8398 25.8378C72.854 25.9151 72.8479 25.9951 72.8221 26.0701C72.7963 26.1451 72.7516 26.2126 72.6923 26.2663L69.7567 28.842C69.686 28.9032 69.5985 28.9416 69.5056 28.9522C69.4127 28.9629 69.3187 28.9454 69.236 28.9019C67.2405 27.8329 65.2681 28.1278 63.4017 27.8606C61.8747 27.6425 60.3416 27.5457 58.8024 27.5703C58.7064 27.5733 58.6116 27.607 58.5305 27.667C57.8823 28.1616 57.3385 28.7437 56.8991 29.4134C56.3369 30.2735 56.5274 30.4993 57.4706 30.0907C58.1772 29.7835 58.8654 29.3811 59.5352 28.8835C60.4062 28.2338 61.7426 28.2799 62.8302 28.6992C67.1038 30.3457 71.1039 31.5852 74.8306 32.4177C76.3376 32.754 76.25 31.6988 76.1993 30.6298C75.6648 19.433 73.8029 11.5998 69.3143 1.22305C69.2083 0.969626 69.3235 0.430518 69.7291 0.997274C74.0426 7.05188 76.3975 12.807 78.2455 20.4144C79.2409 24.5184 80.2056 28.5886 81.1396 32.625C81.1664 32.74 81.1465 32.861 81.0843 32.9614C79.923 34.9366 78.3331 36.4402 76.3146 37.4724C76.2249 37.5175 76.1236 37.5329 76.0255 37.5163C75.9275 37.4997 75.8382 37.452 75.7708 37.3802C75.015 36.5846 74.0364 35.9426 72.8352 35.4542C66.3833 32.8277 62.6827 31.2611 57.1664 33.2609C57.0931 33.2878 57.0279 33.3324 56.9771 33.3905C56.9263 33.4485 56.8915 33.5181 56.8761 33.5926C56.641 34.6478 62.5214 33.952 63.1804 33.8276C63.26 33.8122 63.342 33.8177 63.418 33.8436C63.4941 33.8695 63.5616 33.9148 63.6136 33.9751C67.878 38.8501 72.7015 43.312 78.0842 47.3607C79.4237 48.3682 80.5943 49.15 81.5959 49.706C81.6563 49.7406 81.7237 49.761 81.7932 49.7658C81.8626 49.7706 81.9322 49.7596 81.9968 49.7337L83.5821 49.084C83.6534 49.0546 83.7309 49.0436 83.8075 49.052C83.8841 49.0604 83.9574 49.0878 84.0207 49.1318C84.084 49.1758 84.1352 49.235 84.1697 49.3039C84.2041 49.3728 84.2208 49.4493 84.2181 49.5263C83.9416 57.0093 83.1489 64.5891 81.1442 71.7588C80.115 75.4297 78.8922 79.0406 77.4759 82.5917C77.0888 83.5547 74.2408 89.8305 73.5864 90.0655C73.3867 90.1392 73.3221 90.0762 73.3928 89.8765C77.2055 79.0391 79.2993 67.8791 79.6741 56.3965C79.7525 53.9544 79.1073 52.4845 77.333 50.9916C75.6894 49.6092 71.4403 45.8954 64.586 39.85C63.2834 38.7042 62.2956 37.9746 61.6228 37.6613C60.698 37.2312 59.7026 36.9916 58.6365 36.9425C57.9329 36.9087 57.8085 37.1606 58.2632 37.6982C59.2863 38.9085 60.4154 40.0159 61.6504 41.0204C62.4754 41.6977 63.3924 41.7576 64.3418 42.2645C64.4034 42.2974 64.4566 42.344 64.4974 42.4007C64.5381 42.4574 64.5653 42.5227 64.5768 42.5916C64.7673 43.633 64.8733 44.6666 64.8948 45.6926C64.9931 50.5124 64.9701 55.3321 64.8257 60.1518C64.5676 68.7684 63.1758 76.984 61.1251 85.407C59.8501 90.6445 57.8024 95.4166 54.982 99.7234C54.9359 99.7879 54.5165 100.12 54.7239 99.5989C61.2403 83.1768 60.7103 66.7225 60.0697 47.8537C60.0482 47.1994 60.1619 46.476 60.4108 45.6834C60.4297 45.6252 60.4367 45.5637 60.4311 45.5027C60.4256 45.4417 60.4077 45.3825 60.3785 45.3286C59.1219 42.9879 57.4506 40.9989 55.3645 39.3616C55.3411 39.3425 55.3144 39.3282 55.2859 39.3195C55.2575 39.3108 55.2278 39.3078 55.1986 39.3109C54.9497 39.3339 54.9636 39.6104 55.0649 39.744C55.9959 40.939 56.4721 42.1078 56.4936 43.2505C56.6088 49.2268 54.3046 56.931 52.1248 62.5985C51.9035 63.1761 51.5856 63.8119 51.1708 64.5062C50.8943 64.9731 50.627 64.9669 50.3689 64.4877L50.2998 64.3541C49.9557 63.7182 49.673 63.7428 49.4518 64.4278C49.4365 64.477 49.4242 64.5307 49.415 64.5891C49.3535 64.9178 49.1999 65.0422 48.9541 64.9623C48.8655 64.933 48.7912 64.8703 48.7467 64.7872C48.2982 63.9763 47.9111 63.1453 47.5854 62.2944C45.1184 55.8036 43.6575 49.878 43.2028 44.5177C43.086 43.1108 43.5484 41.5241 44.5899 39.7578C44.609 39.7271 44.6183 39.6912 44.6167 39.655C44.615 39.6189 44.6025 39.584 44.5807 39.5551C44.1982 39.016 41.0045 42.9833 40.1796 43.9693C38.963 45.4254 39.7602 46.241 39.7142 47.6049C39.1381 65.0176 38.3408 83.1354 45.1706 99.6174C45.2489 99.8063 45.2858 100.286 44.9125 99.7648C39.3271 91.9132 37.6081 81.6747 36.1011 72.3993C34.5296 62.7368 34.7232 52.4154 35.1241 42.6515C35.1282 42.5616 35.1592 42.4747 35.2133 42.4017C35.2674 42.3288 35.3422 42.273 35.4283 42.2414C37.9199 41.3168 39.9492 39.7886 41.5161 37.6567C41.8878 37.1468 41.7588 36.901 41.129 36.9194C40.1704 36.9502 39.2088 37.1713 38.2441 37.583C37.5006 37.9024 36.6388 38.5045 35.6587 39.3892C31.1701 43.4563 26.6185 47.4482 22.0038 51.3648C20.8425 52.3509 20.1605 53.9544 20.1881 55.5993C20.3632 67.085 22.3725 78.2266 26.216 89.0241C26.5632 89.9979 26.3972 90.0962 25.7183 89.319C25.5585 89.1378 25.4233 88.935 25.3127 88.7108C19.5752 77.1637 16.2156 65.4738 15.7916 52.0375C15.7916 52.0038 15.7379 51.5169 15.6303 50.5769C15.5812 50.1622 15.5919 49.7475 15.6626 49.3328C15.6755 49.2576 15.7068 49.1868 15.7539 49.1267C15.8009 49.0666 15.8621 49.0191 15.932 48.9885C16.0019 48.9579 16.0783 48.9451 16.1543 48.9513C16.2304 48.9575 16.3037 48.9825 16.3677 49.0241C16.7333 49.2606 17.125 49.4234 17.5429 49.5125C20.5015 50.1668 33.396 37.0393 35.6449 34.4727C36.115 33.9352 36.6987 33.7478 37.3961 33.9106C37.9261 34.035 43.3272 34.7123 42.8756 33.5512C42.8524 33.4916 42.8171 33.4374 42.7719 33.3922C42.7266 33.347 42.6725 33.3117 42.6129 33.2885C39.4745 32.0675 36.7601 31.9753 33.4052 33.0674C30.5802 33.9889 26.9487 35.081 24.603 36.9148C22.6859 38.4124 19.5568 34.3437 18.7411 33.0167C18.679 32.9165 18.6591 32.794 18.6858 32.6757C20.1927 25.7087 21.6398 17.94 24.2021 11.7288C25.7874 7.88282 27.789 4.24729 30.2069 0.822178C30.2376 0.7761 30.2714 0.736165 30.3083 0.702375C30.6309 0.398262 30.7123 0.453555 30.5525 0.868255C27.9073 7.68775 26.3742 11.9438 25.9533 13.6364C24.5032 19.4606 23.7259 25.3954 23.6214 31.4408C23.6061 32.2088 23.9809 32.5544 24.7459 32.4776C27.4004 32.2149 30.8936 30.7266 33.5204 29.9341C34.8845 29.524 36.9214 28.455 38.9584 28.3444C39.0428 28.3414 39.1255 28.3605 39.198 28.3997L42.3087 30.0539C43.1782 30.5147 43.3871 30.3073 42.9355 29.4318C42.5914 28.7714 42.1259 28.2614 41.5391 27.902C40.9953 27.5703 40.1981 27.4428 39.1473 27.5196C35.3177 27.8099 32.6125 27.8375 30.488 28.8697C30.4042 28.9103 30.3099 28.9246 30.2178 28.9106C30.1256 28.8966 30.0399 28.8551 29.9719 28.7913L27.11 26.082C27.0537 26.0297 27.0114 25.9639 26.9873 25.8906C26.9631 25.8173 26.9578 25.7389 26.9718 25.6627C28.1331 19.5896 29.7353 13.8007 31.7784 8.29598C32.1793 7.20855 35.2347 -0.173101 35.8016 0.301499C35.8303 0.324732 35.8513 0.356038 35.862 0.391363C35.8727 0.426688 35.8725 0.464406 35.8615 0.499633C33.5573 8.34667 31.9028 16.2859 31.5894 24.4877C31.5842 24.6035 31.6236 24.717 31.6998 24.8051C31.776 24.8933 31.8832 24.9495 31.9996 24.9623C35.416 25.3401 38.8017 25.2096 42.1566 24.5706C42.2377 24.5554 42.3215 24.5623 42.3993 24.5906C42.4771 24.619 42.5461 24.6678 42.5991 24.7319L45.1107 27.8099C45.1569 27.8664 45.216 27.9112 45.2829 27.9404C45.3499 27.9696 45.4228 27.9825 45.4958 27.978C45.5687 27.9735 45.6395 27.9518 45.7023 27.9145C45.7652 27.8773 45.8183 27.8256 45.8572 27.7638C46.3027 27.0665 46.865 26.4905 47.5439 26.0359C48.3028 25.526 48.5348 25.7041 48.2398 26.5704L47.7882 27.8744C47.4625 28.8144 47.63 28.9111 48.2905 28.1647L48.4933 27.9343C48.5416 27.8791 48.6024 27.8361 48.6706 27.8091C48.7388 27.7821 48.8125 27.7718 48.8855 27.779C48.9586 27.7862 49.0288 27.8108 49.0905 27.8506C49.1521 27.8904 49.2033 27.9444 49.2399 28.008C49.2798 28.0817 49.3167 28.1555 49.3505 28.2292C49.862 29.3765 50.2353 28.6577 50.627 28.0265C50.667 27.9615 50.7226 27.9074 50.7887 27.8692C50.8547 27.831 50.9293 27.8098 51.0056 27.8075C51.0819 27.8052 51.1576 27.8219 51.2258 27.8561C51.2941 27.8903 51.3528 27.9409 51.3966 28.0034L51.5303 28.1923C52.157 29.074 52.3321 28.9925 52.0556 27.9481Z" fill="#010101"/>
</svg>
