<svg width="100" height="100" viewBox="0 0 100 100" fill="none" xmlns="http://www.w3.org/2000/svg">
<g clip-path="url(#clip0_1_69)">
<rect width="100" height="100" fill="#FEDD02"/>
<path fill-rule="evenodd" clip-rule="evenodd" d="M15.6889 31.7556C6.92501 36.7047 1.74216 43.4064 1.74216 50.615C1.74216 57.8235 6.92501 64.5253 15.6889 69.4744C24.4262 74.4085 36.5552 77.4878 50 77.4878C63.4447 77.4878 75.5738 74.4085 84.3111 69.4744C93.075 64.5253 98.2578 57.8235 98.2578 50.615C98.2578 43.4064 93.075 36.7047 84.3111 31.7556C75.5738 26.8215 63.4447 23.7422 50 23.7422C36.5552 23.7422 24.4262 26.8215 15.6889 31.7556ZM14.8323 30.2386C23.8761 25.1314 36.3116 22 50 22C63.6884 22 76.1239 25.1314 85.1677 30.2386C94.185 35.3308 100 42.501 100 50.615C100 58.729 94.185 65.8992 85.1677 70.9914C76.1239 76.0986 63.6884 79.23 50 79.23C36.3116 79.23 23.8761 76.0986 14.8323 70.9914C5.81503 65.8992 0 58.729 0 50.615C0 42.501 5.81503 35.3308 14.8323 30.2386Z" fill="#231F20"/>
<path d="M42.3484 42.0273C30.482 46.4263 24.4483 35.4803 30.482 29.1377C20.8658 31.593 5.21484 38.5494 5.21484 50.1232C5.21484 60.6342 15.4442 66.5784 22.8107 69.1359C15.7085 60.3427 25.4733 53.4536 34.0302 63.0674C40.6916 51.2585 48.5482 68.2149 49.946 70.791C51.3467 68.2166 59.2003 51.2602 65.8618 63.0674C74.4158 53.4536 84.1812 60.3427 77.0795 69.1359C84.4454 66.5808 94.6754 60.6319 94.6754 50.1232C94.6754 38.5494 79.0238 31.593 69.4082 29.1377C75.4436 35.4803 69.4082 46.4263 57.5418 42.0297C56.1695 40.3944 55.2874 37.0262 55.2874 27.0918C53.6968 28.1243 52.5615 31.7707 52.4599 32.0279C49.9431 31.273 47.4262 32.0279 47.4262 32.0279C47.3246 31.7678 46.1893 28.1214 44.5987 27.0918C44.5993 37.0262 43.7172 40.3944 42.3484 42.0273Z" fill="#231F20" stroke="#231F20" stroke-width="0.058072"/>
</g>
<defs>
<clipPath id="clip0_1_69">
<rect width="100" height="100" fill="white"/>
</clipPath>
</defs>
</svg>
