<svg width="100" height="100" viewBox="0 0 100 100" fill="none" xmlns="http://www.w3.org/2000/svg">
<rect width="100" height="100" fill="#BD1F2E"/>
<path d="M24.8381 68.1882C24.7236 67.5872 25.2708 67.3948 25.5742 67.0868C32.5267 60.0649 39.4873 53.0536 46.4558 46.053C46.6161 45.8916 46.7546 45.7095 47.0626 45.3489H31.8242C31.7818 45.2424 31.7406 45.136 31.6994 45.0295L88.4113 0L88.6861 0.264468L63.2925 31.3733H76.8594L77.0002 31.6481L54.8787 53.892L55.0115 54.1771H70.037L70.171 54.5L12.7836 100L12.605 99.8191C14.0765 98.0209 15.5477 96.223 17.0185 94.4256C23.9756 85.9534 30.9331 77.4782 37.8909 68.9999C37.9514 68.9001 37.9984 68.7927 38.0306 68.6805C37.8898 68.0005 37.3437 68.3096 36.9922 68.3073C33.3286 68.2821 29.6558 68.2947 25.9875 68.2867C25.6052 68.2867 25.2067 68.3794 24.8381 68.1882Z" fill="#FEDF15"/>
<path d="M13.2749 50.2353C13.4181 61.2995 17.5843 70.5307 25.9832 77.7996C26.8132 78.5185 26.8258 78.957 26.1274 79.7367C25.0306 80.9594 24.0174 82.2555 23.0236 83.5721C22.5542 84.1915 22.2428 84.204 21.6383 83.6866C14.7347 77.8538 10.059 70.591 7.61119 61.8983C5.5504 54.5195 5.45537 47.0686 7.39023 39.6875C10.1872 29.0126 16.0708 20.4053 25.3649 14.2939C33.734 8.7916 42.8966 6.30033 52.9395 7.1693C58.4704 7.64786 63.7266 9.03776 68.6977 11.505C69.8701 12.0866 69.8723 12.0992 68.9003 12.9052C67.3639 14.1783 65.8092 15.4331 64.283 16.7188C63.8251 17.1069 63.437 17.234 62.8141 16.9844C56.9443 14.6362 50.8856 13.8486 44.5979 14.7381C32.0854 16.5093 22.9103 23.0431 16.9993 34.1268C14.3362 39.1208 13.1318 44.5326 13.2749 50.2353Z" fill="#FEDF15"/>
<path d="M30 89.8642C32.0264 88.2133 33.9121 86.6929 35.7771 85.1461C36.1675 84.8221 36.4846 84.9767 36.8579 85.1221C41.7042 87.002 46.7039 87.9591 51.9234 87.7313C59.8162 87.387 66.8447 84.7538 73.0088 79.8316C78.8213 75.2062 82.8548 69.3341 84.9865 62.2427C89.1688 48.3255 85.1194 33.8301 73.8812 24.1089C73.0683 23.4059 73.074 23.0304 73.7495 22.2942C74.8841 21.0566 75.9431 19.7434 76.9792 18.4188C77.4028 17.8761 77.6593 17.8807 78.1825 18.318C84.6637 23.7379 89.1734 30.4652 91.7895 38.4978C93.7426 44.4924 94.3723 50.6267 93.5709 56.8434C92.3745 66.1468 88.5964 74.3178 82.1541 81.2111C76.7617 86.9848 70.2759 91.0171 62.7128 93.2496C56.6083 95.0517 50.3732 95.3928 44.0661 94.5285C39.1602 93.8564 34.5795 92.2307 30 89.8642Z" fill="#FEDF15"/>
</svg>
