<svg width="100" height="100" viewBox="0 0 100 100" fill="none" xmlns="http://www.w3.org/2000/svg">
<g clip-path="url(#clip0_4_846)">
<path d="M99.5696 0.430664H0.430176V99.5701H99.5696V0.430664Z" fill="#ED1C24" stroke="#231F20" stroke-width="0.860585"/>
<path d="M93.3673 21.5235C99.8122 32.0415 85.5566 52.0295 61.5257 66.1663C37.4947 80.3032 12.789 83.236 6.34321 72.7197C-0.102575 62.2033 14.153 42.2137 38.1849 28.0768C62.2167 13.94 86.919 11.0045 93.3673 21.5235Z" fill="#231F20" stroke="#231F20" stroke-width="0.860585"/>
<path d="M16.2976 31.6097C71.4215 14.0486 60.1409 39.4015 47.116 41.8438L49.9998 32.3077L32.2296 37.0753L14.3208 83.361L33.6254 77.1949L42.8131 52.3102L81.0738 85.9195L63.511 44.6347C98.7485 24.6321 81.4456 1.83777 19.4344 27.6553L16.2976 31.6097Z" fill="#FFF200" stroke="#231F20" stroke-width="0.860585"/>
</g>
<defs>
<clipPath id="clip0_4_846">
<rect width="100" height="100" fill="white"/>
</clipPath>
</defs>
</svg>
