<svg width="100" height="100" viewBox="0 0 100 100" fill="none" xmlns="http://www.w3.org/2000/svg">
<rect width="100" height="100" fill="#08529D"/>
<path d="M49.9995 87.2967C44.7838 81.2157 39.623 75.1869 34.4462 69.1705C29.6154 63.5546 24.7769 57.9454 19.9307 52.3431C14.7247 46.2895 9.527 40.2286 4.33754 34.1602C3.0042 32.6048 1.68324 31.0361 0.310079 29.5187C-0.117264 29.0463 -0.103992 28.8012 0.348124 28.3685C5.83368 23.1189 11.3039 17.8566 16.7588 12.5816C16.9451 12.3889 17.1701 12.2377 17.4189 12.138C17.6678 12.0382 17.9349 11.9923 18.2027 12.003C39.4177 12.0183 60.633 12.0183 81.8485 12.003C82.3564 12.003 82.7333 12.1171 83.1128 12.4799C88.5984 17.7779 94.0931 23.0635 99.597 28.3367C100.092 28.81 100.147 29.0516 99.6651 29.6072C94.3199 35.7723 88.9966 41.9547 83.695 48.1546C78.8866 53.7422 74.0758 59.3263 69.2627 64.9068C64.8795 70.0013 60.5011 75.0999 56.1274 80.2027C54.1022 82.5553 52.0708 84.8981 49.9995 87.2967Z" fill="#010101"/>
<path d="M50.018 14.2319C60.3179 14.2319 70.6177 14.2287 80.9176 14.2222C81.5679 14.2222 82.0678 14.3646 82.5544 14.8415C87.2101 19.3739 91.8858 23.8862 96.5815 28.3785C97.1372 28.9093 97.1858 29.1845 96.6479 29.8065C87.8657 39.9677 79.1044 50.144 70.3641 60.3354C63.8611 67.8984 57.3624 75.4679 50.8682 83.0438C50.0463 84.0011 50.0268 84.0171 49.2323 83.1005C44.3661 77.4627 39.5055 71.8194 34.6504 66.1704C29.8597 60.6017 25.0714 55.0306 20.2854 49.4572L5.72385 32.5094C4.87801 31.5247 4.04279 30.5258 3.17749 29.5623C2.83155 29.1792 2.82358 28.9597 3.22173 28.5784C8.04194 23.97 12.8459 19.3441 17.6337 14.7008C18.092 14.2584 18.5671 14.2292 19.1184 14.2301C29.4182 14.2343 39.7181 14.2349 50.018 14.2319Z" fill="#C72227"/>
<path d="M80.3134 44.0915C79.6056 42.821 78.9783 41.4983 77.9715 40.4091C75.1552 37.362 71.4967 35.9287 67.5976 34.9829C64.3027 34.1866 60.9459 33.8406 57.5563 33.7114C53.5191 33.5584 49.4864 33.8672 45.4509 33.7513C41.3412 33.6345 37.2562 33.3257 33.4296 31.649C31.7052 30.8943 30.1798 29.8485 29.5242 27.9543C28.8261 25.937 29.8613 23.1349 31.8636 21.4955C33.81 19.9029 36.0972 19.0066 38.5188 18.481C45.0139 17.0707 51.5125 16.8 57.9616 18.735C61.2087 19.7082 64.047 21.345 66.0527 24.1807C67.0331 25.5672 67.6816 27.1005 67.901 28.7886C67.9718 29.3327 68.1957 29.4531 68.6876 29.4522C73.1035 29.4398 77.5185 29.4309 81.9334 29.4584C82.6563 29.4628 82.6713 29.0947 82.6678 28.563C82.6542 25.9299 82.6542 23.2965 82.6678 20.6629C82.6678 20.3391 82.5678 19.994 82.7563 19.6896C83.0217 19.6613 83.1235 19.8737 83.2588 20.0064C86.2387 22.9291 89.2174 25.852 92.195 28.7753C92.5825 29.1531 92.7878 29.4044 92.3445 29.9255C88.3926 34.5936 84.4553 39.2743 80.5329 43.9677C80.466 44.0192 80.3921 44.0609 80.3134 44.0915Z" fill="#010101"/>
<path d="M19.6943 43.7827C23.9695 44.602 28.1793 45.278 32.4235 45.7124C35.6856 46.046 38.9487 46.391 42.2188 46.6264C48.628 47.0864 55.0567 47.2784 61.4518 47.9261C63.8274 48.1667 66.1792 48.5826 68.4282 49.4762C71.7603 50.8033 71.1781 53.7231 69.5448 55.3794C67.7187 57.2374 65.3236 57.8311 62.8613 58.1549C58.2286 58.7618 53.5756 58.5645 48.9253 58.4079C48.6059 58.3964 48.3493 58.3601 48.152 58.0381C46.4196 55.2068 43.6397 54.0257 40.5625 53.5311C37.4277 53.0285 34.3532 53.294 31.5918 55.1095C31.4485 55.2033 31.3069 55.3006 31.1733 55.4068C30.055 56.2986 30.0594 56.296 29.1622 55.236C26.1823 51.7147 23.201 48.1945 20.2181 44.6754C20.0226 44.4427 19.7802 44.241 19.6943 43.7827Z" fill="#010101"/>
<path d="M36.206 62.6245C45.1961 65.0629 54.2207 66.0636 63.3383 63.1492L63.4223 63.4518C62.4597 64.5878 61.5033 65.7283 60.5318 66.8572C57.2148 70.7139 53.8801 74.5547 50.5861 78.4327C50.0818 79.0272 49.8208 78.8494 49.42 78.3822C46.3092 74.7505 43.1906 71.1254 40.0645 67.5067C38.7355 65.9595 37.4084 64.4106 36.083 62.8599C36.1211 62.7811 36.1635 62.7033 36.206 62.6245Z" fill="#010101"/>
<path d="M28.1209 17.2841C21.1569 22.6113 16.5827 29.3754 14.6725 38.0859C13.7674 37.0454 12.9498 36.1235 12.1526 35.1847C10.7839 33.5718 9.44438 31.9341 8.05883 30.3353C7.47046 29.6576 7.49081 29.102 8.13315 28.4844C11.8739 24.8863 15.6077 21.2788 19.3343 17.6619C19.5626 17.4407 19.7891 17.2779 20.1306 17.2788C22.7955 17.2877 25.4569 17.2841 28.1209 17.2841Z" fill="#010101"/>
<path d="M63.9839 17.282C66.7134 17.282 69.442 17.2899 72.1715 17.2749C72.6378 17.2749 72.8227 17.4085 72.8634 17.9004C73.0244 19.8469 72.3272 21.4307 70.9452 22.7552C70.7568 22.9321 70.5657 23.2356 70.3091 22.8392C68.7316 20.4026 66.4842 18.741 63.9839 17.282Z" fill="#020101"/>
<path d="M80.7205 40.8275C76.7107 35.2977 70.797 33.5459 64.5125 32.4957C58.9738 31.5729 53.3953 31.833 47.8231 31.8958C43.8133 31.9418 39.8283 31.7578 35.9486 30.62C34.7666 30.274 33.6367 29.7971 32.6405 29.0486C31.1523 27.9312 30.847 26.7757 31.5398 25.0221C32.0999 23.6064 33.1855 22.7048 34.4595 21.9864C37.0254 20.5319 39.8619 19.9514 42.7454 19.6037C45.6288 19.256 48.5344 19.0959 51.4427 19.3763C55.5338 19.7701 59.4675 20.615 62.7447 23.3277C64.9787 25.1742 66.0926 27.5967 66.2227 30.4554C66.2563 31.2048 66.5005 31.3251 67.1756 31.3216C72.6511 31.2951 78.1273 31.2968 83.604 31.3269C84.4065 31.3331 84.5569 31.0862 84.5392 30.3484C84.4887 28.2647 84.5215 26.1793 84.5215 23.8506C85.2249 24.5434 85.792 25.1017 86.3591 25.6617L88.7675 28.0426C90.2495 29.5096 90.2397 29.5025 88.9214 31.0668C86.1884 34.3042 83.4713 37.5495 80.7205 40.8275Z" fill="#FEEA02"/>
<path d="M24.2329 46.4966C27.6578 46.9982 30.8926 47.4486 34.1423 47.783C39.281 48.3139 44.4348 48.6147 49.5886 48.943C54.7424 49.2712 59.9121 49.3535 64.9977 50.3754C66.0718 50.5913 67.1211 50.8797 68.0988 51.3929C69.0234 51.8804 69.2136 52.5059 68.6898 53.4137C68.1758 54.3029 67.3627 54.8629 66.4478 55.2894C64.8438 56.0388 63.1238 56.3246 61.387 56.475C57.6302 56.7997 53.8664 56.7298 50.1018 56.5882C49.7585 56.575 49.4709 56.5582 49.2081 56.2343C46.2592 52.6254 42.245 51.4929 37.8061 51.4902C35.3137 51.4902 32.924 52.0211 30.7802 53.3969C30.5732 53.5296 30.3661 53.7623 30.0848 53.4261C28.1825 51.1531 26.2626 48.8987 24.2329 46.4966Z" fill="#FEEA01"/>
<path d="M41.2231 65.7119C46.9343 66.7984 52.6366 67.2771 58.6079 66.1702C57.6427 67.301 56.8154 68.2751 55.9828 69.2448C54.1844 71.3405 52.3821 73.4345 50.576 75.5266C50.3318 75.808 50.1469 76.3486 49.6028 75.7098C46.8467 72.4583 44.0464 69.2448 41.2656 66.0172C41.2302 65.9738 41.2453 65.8889 41.2231 65.7119Z" fill="#FDE900"/>
<path d="M13.7641 34.1469C12.4591 32.6136 11.2284 31.1617 9.98969 29.7169C9.74107 29.4276 9.98969 29.294 10.1472 29.1454C13.4836 25.9036 16.7997 22.6414 20.1796 19.4456C20.9714 18.6971 22.0668 19.3368 23.0533 19.1802C18.756 23.4041 15.6566 28.3207 13.7641 34.1469Z" fill="#FEEA02"/>
<path d="M69.7339 19.2445C70.1816 19.079 70.5098 19.1206 70.8841 19.1781C71.0141 19.4922 70.7531 19.947 70.685 19.9514C70.2055 19.9815 70.1143 19.4905 69.7339 19.2445Z" fill="#EADA22"/>
</svg>
