<svg width="100" height="100" viewBox="0 0 100 100" fill="none" xmlns="http://www.w3.org/2000/svg">
<rect width="100" height="100" fill="#FE0000"/>
<path d="M16.0137 27.6067C20.9098 27.6067 25.8069 27.6239 30.7029 27.5971C32.3426 27.5876 33.6896 28.2132 34.9122 29.2234C37.1057 31.0411 38.6909 33.337 40.1134 35.7554C40.763 36.8593 41.3465 38.0016 41.953 39.1304C42.0296 39.2729 42.0688 39.4566 42.2525 39.4777C42.4706 39.5035 42.4811 39.2787 42.5519 39.1505C44.0041 36.557 45.4849 33.9798 46.8845 31.3567C47.7378 29.7563 48.6858 28.2065 49.5899 26.6329C49.6476 26.5279 49.6996 26.42 49.7458 26.3095C49.9046 25.9469 50.0443 25.8609 50.2787 26.2799C51.2898 28.0908 52.324 29.8883 53.3399 31.6944C54.588 33.9087 55.8316 36.125 57.0708 38.3431C57.2191 38.6062 57.3578 38.8731 57.4955 39.1419C57.7175 39.58 57.8954 39.5752 58.1193 39.1275C58.8821 37.5844 59.7231 36.0811 60.6391 34.6237C61.4847 33.2844 62.3773 31.9824 63.4583 30.8325C64.4685 29.7582 65.5284 28.7126 66.9022 28.0803C67.4522 27.8277 68.0167 27.6134 68.6347 27.6134C78.9128 27.6134 89.1912 27.6134 99.47 27.6134C100.02 27.6134 100.099 27.7732 99.9015 28.4036C99.4337 29.896 98.9085 31.3587 98.1183 32.7238C97.3941 33.9722 96.492 34.9929 95.0963 35.4856C94.7748 35.5994 94.4534 35.742 94.1195 35.7898C93.6001 35.8654 93.4977 36.2117 93.4422 36.6355C93.1897 38.5889 92.499 40.3348 90.9406 41.6244C90.0796 42.3351 89.1039 42.8489 87.9588 42.9129C87.4451 42.9416 87.225 43.1693 87.1131 43.6658C86.7094 45.4528 86.0665 47.1403 84.645 48.3868C83.585 49.3176 82.349 49.8763 80.9016 49.9519C78.1274 50.0964 75.3589 50.0935 72.5913 50.0093C71.0875 49.9643 70.128 50.6617 69.4258 51.8001C67.9669 54.164 66.7855 56.679 65.4835 59.1318C64.8814 60.2645 64.2813 61.3974 63.6831 62.5308C62.5868 64.6118 61.4924 66.6934 60.3999 68.7757C59.559 70.3704 58.6225 71.9144 57.8954 73.5685C57.8457 73.6823 57.7041 73.754 57.5989 73.8459C57.4996 73.7526 57.4116 73.6479 57.3367 73.534C56.2519 71.3691 55.1824 69.1976 54.0918 67.0365C53.1639 65.1988 52.1977 63.3802 51.2841 61.5349C50.9473 60.8538 50.6642 60.1468 50.2318 59.5154C50.161 59.4121 50.2088 59.1863 50.0012 59.2284C49.9056 59.2504 49.8099 59.3767 49.7592 59.4791C48.6112 61.9893 47.2825 64.4038 46.0627 66.8768C44.9779 69.077 43.8376 71.2505 42.7222 73.4364C42.66 73.5579 42.638 73.7091 42.4476 73.7119C42.2238 73.7119 42.2104 73.5359 42.1377 73.3982C41.2569 71.7215 40.3746 70.0455 39.4906 68.3701C37.6756 64.937 35.858 61.5046 34.0378 58.0728C32.9625 56.0476 31.8978 54.0167 30.7852 52.0135C30.0706 50.7296 29.0633 49.9481 27.4465 50.0131C25.1238 50.1088 22.7944 50.037 20.4679 50.038C18.6789 50.038 16.9953 49.7233 15.589 48.5074C14.463 47.5354 13.7341 46.3205 13.2978 44.9161C13.1314 44.3795 12.9697 43.8399 12.83 43.2956C12.7516 42.9904 12.5364 42.9455 12.2838 42.9244C11.1387 42.8405 10.0493 42.3972 9.17091 41.6578C8.09182 40.7557 7.43461 39.5905 6.96585 38.2914C6.77059 37.7621 6.65548 37.2065 6.62433 36.6431C6.59755 36.0625 6.36126 35.8042 5.82936 35.7286C3.83955 35.4416 2.74611 34.0612 1.81722 32.4712C0.997378 31.0669 0.544888 29.52 0.0369124 27.9942C-0.0731011 27.6651 0.0723071 27.6038 0.346863 27.6058C0.873014 27.6058 1.39917 27.6058 1.92436 27.6058H16.0137V27.6067Z" fill="#0E0C0C"/>
<path d="M1.45752 28.7033H2.61984C11.7644 28.7033 20.9089 28.7406 30.0524 28.6774C32.0365 28.664 33.5662 29.3854 34.9227 30.7036C36.9316 32.6532 38.4259 34.974 39.7862 37.3915C40.6357 38.902 41.3953 40.4575 42.153 42.1498L50.05 28.1006L57.9232 42.1383C58.2972 41.3462 58.6148 40.6402 58.9602 39.9495C60.4324 36.9992 62.052 34.1408 64.2513 31.6545C65.1257 30.6653 66.0823 29.7728 67.2762 29.1672C67.8315 28.8727 68.4491 28.715 69.0776 28.7071C78.8098 28.7071 88.541 28.7071 98.2713 28.7071C98.367 28.7071 98.4684 28.7224 98.632 28.7368C98.0197 30.5295 97.4247 32.2868 96.0424 33.6252C95.1125 34.5244 93.9378 34.7645 92.6884 34.7636C86.1134 34.7588 79.5365 34.8353 72.9634 34.7244C70.5087 34.6823 68.7408 35.681 67.2236 37.4135C65.5275 39.343 64.2915 41.5643 63.2057 43.867C61.4838 47.5127 59.7991 51.1766 58.0982 54.832C58.0322 54.9745 57.9624 55.1189 57.8418 55.3667L50.0414 41.1616C47.4327 45.9266 44.8756 50.5979 42.2534 55.383C41.6794 54.1633 41.1647 53.0421 40.6348 51.9257C39.0879 48.6645 37.6883 45.3335 36.0123 42.1354C34.8088 39.8395 33.4294 37.6536 31.3649 36.0024C30.3587 35.1743 29.0911 34.7305 27.7881 34.7502C21.0103 34.7741 14.2334 34.7406 7.45565 34.7731C5.41131 34.7827 3.91608 33.9648 2.92692 32.1988C2.83125 32.0228 2.71167 31.8564 2.62366 31.6755C2.14955 30.7205 1.75936 29.7259 1.45752 28.7033Z" fill="#F9EB1B"/>
<path d="M57.6272 71.5675L50.0429 56.5396C47.4973 61.5831 44.9995 66.5327 42.4482 71.5818C41.8254 70.4052 41.2524 69.3261 40.6822 68.2451C37.9188 62.9989 35.1554 57.7527 32.392 52.5065C32.0118 51.7709 31.5586 51.0754 31.0393 50.4306C30.1621 49.3562 29.0591 48.8521 27.6547 48.8693C24.9847 48.9018 22.3138 48.8856 19.6438 48.854C17.4512 48.8282 15.9043 47.7405 14.8903 45.8377C14.5076 45.1202 14.2771 44.3502 14.0618 43.5714C13.9394 43.1295 14.0618 43.0233 14.5095 43.0252C18.1113 43.0405 21.7121 43.0348 25.3138 43.0348C26.9736 43.0348 28.6343 42.9898 30.2883 43.0453C32.7297 43.1276 34.7616 44.1933 36.4357 45.9152C37.2488 46.7504 37.5387 47.9194 38.0285 48.9525C39.3755 51.7909 40.6784 54.6512 42.0005 57.502C42.033 57.5728 42.0808 57.6369 42.1803 57.8034C44.8063 53.0202 47.3978 48.2886 50.0391 43.4729L57.9142 57.8263C58.4346 56.7195 58.9119 55.7141 59.3807 54.7048C60.4665 52.3668 61.6259 50.0575 62.6084 47.6764C63.4694 45.588 65.1071 44.4793 67.0443 43.6413C68.1349 43.1687 69.2752 43.0166 70.4672 43.0233C75.4647 43.0488 80.4621 43.0488 85.4596 43.0233C86.0126 43.0233 86.1551 43.1323 85.9992 43.6824C85.672 44.8371 85.2607 45.9439 84.5078 46.8977C83.5358 48.1308 82.2472 48.811 80.6946 48.8416C77.9845 48.8999 75.2714 48.9258 72.5632 48.8655C70.8986 48.8291 69.6866 49.4959 68.7577 50.8056C67.5619 52.4921 66.7286 54.3824 65.7634 56.1962C63.1384 61.1296 60.5478 66.0812 57.9419 71.0241C57.8587 71.181 57.7649 71.3331 57.6272 71.5675Z" fill="#FCEC1B"/>
<path d="M64.5049 43.7062C65.7169 41.3203 66.9424 39.1688 68.7562 37.4172C69.8477 36.3649 71.0961 35.8321 72.6717 35.8455C78.9607 35.899 85.2506 35.8665 91.5405 35.8665C92.4732 35.8665 92.4971 35.8665 92.322 36.8002C92.0666 38.1892 91.5692 39.4692 90.536 40.4995C89.5028 41.5298 88.2487 41.9058 86.8481 41.9086C81.3886 41.9182 75.9281 41.946 70.4676 41.8991C68.4376 41.8809 66.62 42.4625 64.9057 43.4871C64.8244 43.5301 64.7412 43.5741 64.5049 43.7062Z" fill="#FBEA18"/>
<path d="M35.4722 43.6297C34.6715 43.1867 33.8985 42.7687 33.071 42.4626C32.0655 42.0888 31.0002 41.9014 29.9275 41.9096C24.4852 41.9202 19.0419 41.8704 13.5996 41.9307C9.81226 41.9718 8.14101 39.4673 7.70287 36.3774C7.64834 35.989 7.73157 35.8579 8.15631 35.8589C14.8528 35.8723 21.5493 35.8589 28.2457 35.8761C29.2569 35.8761 30.0844 36.3889 30.8555 37.0136C32.4119 38.2706 34.8418 41.7126 35.4722 43.6297Z" fill="#FCEB1B"/>
</svg>
